{"title":"Fitoor 2016 Movies DVDScr XviD AAC New Source with Sample ☻rDX☻","uid":13517977,"size":738486556,"categoryP":"video","categoryS":"movies","magnet":"?xt=urn:btih:9ba6d00745abb81ef2f9f78ebffbebad2c5a0ab0&amp;dn=Fitoor+2016+Movies+DVDScr+XviD+AAC+New+Source+with+Sample+%E2%98%BBrDX%E2%98%BB&amp;tr=udp%3A%2F%2Ftracker.leechers-paradise.org%3A6969&amp;tr=udp%3A%2F%2Fzer0day.ch%3A1337&amp;tr=udp%3A%2F%2Fopen.demonii.com%3A1337&amp;tr=udp%3A%2F%2Ftracker.coppersurfer.tk%3A6969&amp;tr=udp%3A%2F%2Fexodus.desync.com%3A6969","seeders":1,"leechers":0,"uploader":"basicssom","files":2,"time":1455332994,"description":"----------------------------------------------------------------\r\nFitoor 2016 Hindi Movies DVDScr XviD AAC New Source with Sample ~ ☻rDX☻\r\n\r\nSCREEN SHOTS &amp; POSTER:\r\n  \nhttp://mobileshosting.com/2016/2/Fitoor/11.html  \nhttp://mobileshosting.com/2016/2/Fitoor/1.html  \nhttp://mobileshosting.com/2016/2/Fitoor/2.html  \nhttp://mobileshosting.com/2016/2/Fitoor/3.html  \nhttp://mobileshosting.com/2016/2/Fitoor/4.html  \nhttp://mobileshosting.com/2016/2/Fitoor/5.html  \nhttp://mobileshosting.com/2016/2/Fitoor/6.html  \nhttp://mobileshosting.com/2016/2/Fitoor/7.html  \nhttp://mobileshosting.com/2016/2/Fitoor/8.html  \nhttp://mobileshosting.com/2016/2/Fitoor/9.html  \nhttp://mobileshosting.com/2016/2/Fitoor/10.html\r\n\r\nFormat                                   : Matroska\r\nFormat version                           : Version 4 / Version 2\r\nFile size                                : 686 MiB\r\nDuration                                 : 2h 6mn\r\nOverall bit rate                         : 760 Kbps\r\nMovie name                               : Fitoor 2016 Hindi Movies DVDScr XviD AAC New Source ☻rDX☻\r\n\r\nVideo\r\nID                                       : 1\r\nFormat                                   : MPEG-4 Visual\r\nFormat profile                           : Advanced   \r\nFormat settings, BVOP                    : Yes\r\nFormat settings, QPel                    : No\r\nFormat settings, GMC                     : No warppoints\r\nFormat settings, Matrix                  : Default (H.263)\r\nCodec ID                                 : V_MS/VFW/FOURCC / XVID\r\nCodec ID/Hint                            : XviD\r\nDuration                                 : 2h 6mn\r\nBit rate                                 : 649 Kbps\r\nWidth                                    : 640 pixels\r\nHeight                                   : 272 pixels\r\nDisplay aspect ratio                     : 2.35:1\r\nFrame rate mode                          : Constant\r\nFrame rate                               : 29.970 fps\r\nColor space                              : YUV\r\nChroma subsampling                       : 4:2:0\r\nBit depth                                : 8 bits\r\nScan type                                : Progressive\r\nCompression mode                         : Lossy\r\nBits/(Pixel*Frame)                       : 0.124\r\nStream size                              : 586 MiB (85%)\r\nTitle                                    : ☻rDX☻\r\nWriting library                          : XviD 67\r\nDefault                                  : Yes\r\nForced                                   : No\r\n\r\nAudio\r\nID                                       : 2\r\nFormat                                   : MPEG Audio\r\nFormat version                           : Version 1\r\nFormat profile                           : Layer 3\r\nMode                                     : Joint stereo\r\nMode extension                           : MS Stereo\r\nCodec ID                                 : A_MPEG/L3\r\nCodec ID/Hint                            : MP3\r\nDuration                                 : 2h 6mn\r\nBit rate mode                            : Constant\r\nBit rate                                 : 96.0 Kbps\r\nChannel(s)                               : 2 channels\r\nSampling rate                            : 32.0 KHz\r\nCompression mode                         : Lossy\r\nStream size                              : 86.7 MiB (13%)\r\nTitle                                    : ☻rDX☻\r\nWriting library                          : LAME3.99r\r\nEncoding settings                        : -m j -V 4 -q 2 -lowpass 15.1 -b 96\r\nDefault                                  : Yes\r\nForced                                   : No\r\n\r\nIMDB                                      \nhttp://www.imdb.com/title/tt4399594/","torrent":{"xt":"urn:btih:9ba6d00745abb81ef2f9f78ebffbebad2c5a0ab0","amp;dn":"Fitoor+2016+Movies+DVDScr+XviD+AAC+New+Source+with+Sample+%E2%98%BBrDX%E2%98%BB","amp;tr":["udp%3A%2F%2Ftracker.leechers-paradise.org%3A6969","udp%3A%2F%2Fzer0day.ch%3A1337","udp%3A%2F%2Fopen.demonii.com%3A1337","udp%3A%2F%2Ftracker.coppersurfer.tk%3A6969","udp%3A%2F%2Fexodus.desync.com%3A6969"],"infoHash":"9ba6d00745abb81ef2f9f78ebffbebad2c5a0ab0","infoHashBuffer":{"type":"Buffer","data":[155,166,208,7,69,171,184,30,242,249,247,142,191,251,235,173,44,90,10,176]},"announce":[],"urlList":[]}}